PathFileType	3	(X/Y/Z)	D:\ViconData\Biomechanics course\HT2024\Leo31oct\Walk_Norm15.trc
DataRate	CameraRate	NumFrames	NumMarkers	Units	OrigDataRate	OrigDataStartFrame	OrigNumFrames
100.0	100.0	4	53	mm	100.0	81	210	
Frame#	Time	LFHD			RFHD			LBHD			RBHD			C7			T10			CLAV			STRN			RBAK			LSHO			LUPA			LELB			LFRM			LWRA			LWRB			LFIN			RSHO			RUPA			RELB			RFRM			RWRA			RWRB			RFIN			LASI			RASI			LPSI			RPSI			LTHI			LTHAP			LTHAD			LKNE			LKNM			LTIB			LTIAP			LTIAD			LANK			LMED			LHEE			LTOE			RTHI			RTHAP			RTHAD			RKNE			RKNM			RTIB			RTIAP			RTIAD			RANK			RMED			RHEE			RTOE			LPel			RPel			
		X1	Y1	Z1	X2	Y2	Z2	X3	Y3	Z3	X4	Y4	Z4	X5	Y5	Z5	X6	Y6	Z6	X7	Y7	Z7	X8	Y8	Z8	X9	Y9	Z9	X10	Y10	Z10	X11	Y11	Z11	X12	Y12	Z12	X13	Y13	Z13	X14	Y14	Z14	X15	Y15	Z15	X16	Y16	Z16	X17	Y17	Z17	X18	Y18	Z18	X19	Y19	Z19	X20	Y20	Z20	X21	Y21	Z21	X22	Y22	Z22	X23	Y23	Z23	X24	Y24	Z24	X25	Y25	Z25	X26	Y26	Z26	X27	Y27	Z27	X28	Y28	Z28	X29	Y29	Z29	X30	Y30	Z30	X31	Y31	Z31	X32	Y32	Z32	X33	Y33	Z33	X34	Y34	Z34	X35	Y35	Z35	X36	Y36	Z36	X37	Y37	Z37	X38	Y38	Z38	X39	Y39	Z39	X40	Y40	Z40	X41	Y41	Z41	X42	Y42	Z42	X43	Y43	Z43	X44	Y44	Z44	X45	Y45	Z45	X46	Y46	Z46	X47	Y47	Z47	X48	Y48	Z48	X49	Y49	Z49	X50	Y50	Z50	X51	Y51	Z51	X52	Y52	Z52	X53	Y53	Z53	
81	0.8	139.68536	1649.5795	1352.8413	255.8662	1656.8602	1356.4886				262.22449	1661.9158	1211.8047	200.32782	1517.5084	1420.1542	214.03905	1284.8755	1500.8297	209.03062	1435.4469	1299.2606	216.65401	1242.9841	1265.1902	290.95041	1412.762	1487.0223	40.390533	1462.5377	1346.4198	-49.107521	1192.8013	1433.0416	-56.760761	1118.7007	1461.494	-63.286983	993.72687	1473.325	-10.749175	844.66199	1442.0082	-41.688046	849.2121	1504.1925	-36.112255	752.96069	1457.12	363.94296	1472.2698	1361.0535	465.59183	1209.2766	1399.2245	483.61371	1126.9329	1411.9554	500.63156	999.17828	1346.8923	475.71896	849.58325	1333.743	461.49548	857.47949	1263.9723	502.25842	781.63403	1248.1069	115.76863	1012.4727	1290.4266	354.11865	993.60773	1326.311	157.52985	1034.4814	1489.8384	241.68874	1031.4346	1502.0897	78.466141	640.79022	1251.4982	151.01987	726.16315	1186.1827	162.38315	617.52124	1160.0421	97.913269	509.1058	1213.1818				114.52789	239.10071	1216.3458	148.34894	411.86282	1159.6112	160.56219	189.64284	1176.019	145.93771	78.584999	1212.6802				183.19308	50.574108	1279.3297	175.25629	50.194511	1121.785	370.23227	564.46008	1436.2782	308.60745	650.44177	1320.9399	308.60376	562.32526	1339.1499	356.94107	467.79642	1464.3455				350.26285	310.07187	1690.0854	322.93494	376.08539	1479.6891	313.89798	265.20572	1656.7222	327.93835	222.93767	1796.9998				281.59219	252.70584	1845.9896	293.36829	102.66528	1796.1265	61.258797	1041.7887	1366.0162	357.25967	1025.9292	1461.9158
82	0.81	139.63788	1652.5513	1338.6803	255.81467	1659.9219	1342.2267				262.00909	1663.8993	1197.4646	200.04033	1520.542	1406.6903	213.05466	1287.9392	1487.3016	209.10143	1438.1614	1285.9041	216.864	1245.573	1251.4052	290.28983	1415.8069	1473.9116	40.516785	1465.4916	1332.2787	-49.602867	1194.0115	1413.3853	-57.528038	1119.2487	1440.3834	-63.91394	994.11151	1449.6489	-10.376312	844.7746	1417.0471	-42.786781	848.23541	1478.5552	-35.429317	752.31781	1430.5907	363.75961	1474.9772	1348.0714	465.21112	1211.7626	1386.5566	482.98108	1129.4653	1399.7014	499.58505	1001.233	1336.8273	474.96051	851.57538	1326.3435	459.55804	857.92749	1256.8275	499.3028	780.87433	1242.1514	115.00469	1014.7762	1277.2604	353.44827	997.07892	1313.047	156.79408	1037.0797	1476.7203	240.94133	1034.0076	1488.9824	78.278046	640.62897	1242.8721	149.83319	724.55719	1175.4082	161.40205	615.64691	1151.1039	97.534935	508.56461	1206.3405				114.20901	238.87683	1213.4276	147.75587	410.67419	1154.3536	160.40215	188.85808	1174.031	145.78296	78.462387	1212.5168				182.99278	50.564159	1279.3922	175.21266	50.028915	1121.7889	369.35345	565.44623	1412.3115	308.84717	653.5448	1298.9053	308.42926	564.86719	1314.453	356.974	469.59399	1435.7689				349.23578	315.80206	1663.2931	322.59128	378.03409	1450.7234	312.57034	270.75836	1630.6327	326.4942	232.36583	1772.6547				278.48413	261.43076	1821.5332	296.15579	111.7383	1772.072	60.535751	1043.8599	1353.0861	356.40356	1028.4711	1448.7914
83	0.82	139.62781	1655.4353	1324.668	255.80203	1662.8624	1328.1321				261.86127	1665.856	1183.3009	199.78223	1523.4604	1393.3191	212.11201	1290.8882	1473.848	209.17833	1440.8099	1272.6317	217.06183	1248.1176	1237.6998	289.65652	1418.723	1460.8633	40.65115	1468.3927	1318.2839	-50.076279	1195.286	1393.8782	-58.256382	1119.9064	1419.3578	-64.470161	994.66956	1425.9822	-9.9683847	845.2757	1391.8573	-43.738472	847.59045	1452.698	-34.757629	752.19281	1403.6301	363.60397	1477.5981	1335.1682	464.84763	1214.2206	1374.1084	482.37338	1131.975	1387.6681	498.57825	1003.2675	1326.8458	474.18677	853.55499	1318.8621	457.71014	858.48279	1249.5835	496.49811	780.33374	1236.0328	114.19916	1017.0237	1264.2017	352.7374	1000.4829	1299.7644	156.1844	1039.6101	1463.6718	240.32306	1036.527	1475.8987	78.009193	640.57947	1234.5817	148.71367	723.10767	1165.0688	160.42802	613.91205	1142.6182	97.083183	508.06616	1199.9301				113.88398	238.65161	1210.7615	147.10143	409.54779	1149.4189	160.19789	188.11664	1172.1995	145.63472	78.34613	1212.3762				182.82846	50.588509	1279.4293	175.16127	49.876312	1121.7804	368.62878	566.88403	1388.4165	309.14743	657.05426	1277.0823	308.43002	567.92596	1289.9204	356.99646	471.77573	1407.4919				348.21957	320.95554	1636.105	322.33069	380.31519	1421.8077	311.42224	275.72562	1603.9113	325.09158	240.29697	1747.3715				275.63956	268.48813	1796.3218	298.46722	119.44424	1746.4506	59.846355	1045.8898	1340.2921	355.6478	1031.0209	1435.6022
84	0.83	139.65508	1658.2311	1310.8043	255.82823	1665.6815	1314.2045				261.78091	1667.7859	1169.3138	199.55342	1526.2631	1380.0404	211.2113	1293.7228	1460.4686	209.26131	1443.3927	1259.4437	217.24744	1250.6177	1224.0748	289.05054	1421.51	1447.877	40.793594	1471.2408	1304.4353	-50.527779	1196.625	1374.5204	-58.945797	1120.6738	1398.4167	-64.955627	995.4007	1402.3248	-9.5252991	846.16498	1366.439	-44.54298	847.27679	1426.6217	-34.096916	752.58551	1376.2397	363.4761	1480.1326	1322.3436	464.50122	1216.6504	1361.88	481.79056	1134.4609	1375.8556	497.61099	1005.2816	1316.9475	473.39786	855.52179	1311.2988	455.95184	859.14465	1242.2404	493.84439	780.01154	1229.7515	113.35213	1019.2147	1251.2501	351.98615	1003.8191	1286.4628	155.70073	1042.0724	1450.693	239.83392	1038.9928	1462.838	77.6604	640.63928	1226.6251	147.66035	721.81067	1155.1633	159.46089	612.31384	1134.5829	96.558167	507.61081	1193.9485				113.55202	238.42615	1208.3461	146.38591	408.48383	1144.8063	159.94948	187.41956	1170.5231	145.49271	78.236725	1212.2577				182.69954	50.647743	1279.4408	175.10182	49.736511	1121.7594	368.05875	568.77039	1364.5941	309.50809	660.96735	1255.4722	308.60638	571.49817	1265.5552	357.0083	474.33853	1379.516				347.21713	325.52676	1608.5244	322.15234	382.92661	1392.9448	310.4527	280.10593	1576.5631	323.73236	246.72896	1721.1552				273.06097	273.87857	1770.3578	300.30414	125.78268	1719.2719	59.190639	1047.8779	1327.6343	354.99246	1033.5779	1422.3484
